# Blender 4.5.1 LTS
# www.blender.org
mtllib maison.mtl
o Cube
v 1.000000 1.000000 -1.000000
v 1.000000 -1.000000 -1.000000
v 1.000000 1.000000 1.000000
v 1.000000 -1.000000 1.000000
v -1.000000 1.000000 -1.000000
v -1.000000 -1.000000 -1.000000
v -1.000000 1.000000 1.000000
v -1.000000 -1.000000 1.000000
v 1.679698 1.000000 -1.679698
v 1.679698 1.000000 1.679698
v -1.679698 1.000000 -1.679698
v -1.679698 1.000000 1.679698
v 0.084930 2.363843 -0.084930
v 0.084930 2.363843 0.084930
v -0.084930 2.363843 -0.084930
v -0.084930 2.363843 0.084930
vn -0.0000 -1.0000 -0.0000
vn -0.0000 -0.0000 1.0000
vn -1.0000 -0.0000 -0.0000
vn 1.0000 -0.0000 -0.0000
vn -0.0000 -0.0000 -1.0000
vn -0.0000 0.7600 -0.6499
vn -0.0000 1.0000 -0.0000
vn 0.6499 0.7600 -0.0000
vn -0.6499 0.7600 -0.0000
vn -0.0000 0.7600 0.6499
vt 0.625000 1.000000
vt 0.625000 0.750000
vt 0.375000 0.750000
vt 0.375000 1.000000
vt 0.375000 0.000000
vt 0.625000 0.000000
vt 0.625000 0.250000
vt 0.375000 0.250000
vt 0.125000 0.500000
vt 0.375000 0.500000
vt 0.125000 0.750000
vt 0.625000 0.500000
vt 0.875000 0.500000
vt 0.875000 0.750000
s 0
usemtl Material
f 7/1/1 3/2/1 10/2/1 12/1/1
f 4/3/2 3/2/2 7/1/2 8/4/2
f 8/5/3 7/6/3 5/7/3 6/8/3
f 6/9/1 2/10/1 4/3/1 8/11/1
f 2/10/4 1/12/4 3/2/4 4/3/4
f 6/8/5 5/7/5 1/12/5 2/10/5
f 5/7/1 7/6/1 12/6/1 11/7/1
f 3/2/1 1/12/1 9/12/1 10/2/1
f 1/12/1 5/7/1 11/7/1 9/12/1
usemtl Material.001
f 9/12/6 11/7/6 15/7/6 13/12/6
f 13/12/7 15/13/7 16/14/7 14/2/7
f 10/2/8 9/12/8 13/12/8 14/2/8
f 11/7/9 12/6/9 16/6/9 15/7/9
f 12/1/10 10/2/10 14/2/10 16/1/10
