# Blender 4.5.1 LTS
# www.blender.org
mtllib monster.mtl
o Cylinder
v 0.000000 0.017545 -1.000000
v 0.195090 0.017545 -0.980785
v 0.195090 2.017545 -0.980785
v 0.382683 0.017545 -0.923880
v 0.382683 2.017545 -0.923880
v 0.555570 0.017545 -0.831470
v 0.555570 2.017545 -0.831470
v 0.707107 0.017545 -0.707107
v 0.707107 2.017545 -0.707107
v 0.831470 0.017545 -0.555570
v 0.831470 2.017545 -0.555570
v 0.923880 0.017545 -0.382683
v 0.923880 2.017545 -0.382683
v 0.980785 0.017545 -0.195090
v 0.980785 2.017545 -0.195090
v 1.000000 0.017545 0.000000
v 1.000000 2.017545 0.000000
v 0.980785 0.017545 0.195090
v 0.980785 2.017545 0.195090
v 0.923880 0.017545 0.382683
v 0.923880 2.017545 0.382683
v 0.831470 0.017545 0.555570
v 0.831470 2.017545 0.555570
v 0.707107 0.017545 0.707107
v 0.707107 2.017545 0.707107
v 0.555570 0.017545 0.831470
v 0.555570 2.017545 0.831470
v 0.382683 0.017545 0.923880
v 0.382683 2.017545 0.923880
v 0.195090 0.017545 0.980785
v 0.195090 2.017545 0.980785
v 0.000000 0.017545 1.000000
v 0.000000 2.017545 1.000000
v -0.195090 0.017545 0.980785
v -0.195090 2.017545 0.980785
v -0.382683 0.017545 0.923880
v -0.382683 2.017545 0.923880
v -0.555570 0.017545 0.831470
v -0.555570 2.017545 0.831470
v -0.707107 0.017545 0.707107
v -0.707107 2.017545 0.707107
v -0.831470 0.017545 0.555570
v -0.831470 2.017545 0.555570
v -0.923880 0.017545 0.382683
v -0.923880 2.017545 0.382683
v -0.980785 0.017545 0.195090
v -0.980785 2.017545 0.195090
v -1.000000 0.017545 0.000000
v -1.000000 2.017545 0.000000
v -0.980785 0.017545 -0.195090
v -0.980785 2.017545 -0.195090
v -0.923880 0.017545 -0.382683
v -0.923880 2.017545 -0.382683
v -0.831470 0.017545 -0.555570
v -0.831470 2.017545 -0.555570
v -0.707107 0.017545 -0.707107
v -0.707107 2.017545 -0.707107
v -0.555570 0.017545 -0.831470
v -0.555570 2.017545 -0.831470
v -0.382683 0.017545 -0.923880
v -0.382683 2.017545 -0.923880
v -0.195090 0.017545 -0.980785
v -0.195090 2.017545 -0.980785
v 0.000000 2.253429 -0.893809
v 0.174373 2.253429 -0.876635
v 0.342046 2.253429 -0.825772
v 0.496574 2.253429 -0.743175
v 0.632018 2.253429 -0.632018
v 0.743175 2.253429 -0.496574
v 0.825772 2.253429 -0.342046
v 0.876635 2.253429 -0.174373
v 0.893809 2.253429 -0.000000
v 0.876635 2.253429 0.174373
v 0.825772 2.253429 0.342046
v 0.743175 2.253429 0.496574
v 0.632018 2.253429 0.632018
v 0.496574 2.253429 0.743175
v 0.342046 2.253429 0.825772
v 0.174373 2.253429 0.876635
v 0.000000 2.253429 0.893809
v -0.174373 2.253429 0.876635
v -0.342046 2.253429 0.825772
v -0.496574 2.253429 0.743175
v -0.632018 2.253429 0.632018
v -0.743175 2.253429 0.496574
v -0.825772 2.253429 0.342046
v -0.876635 2.253429 0.174373
v -0.893809 2.253429 -0.000000
v -0.876635 2.253429 -0.174373
v -0.825772 2.253429 -0.342046
v -0.743175 2.253429 -0.496574
v -0.632018 2.253429 -0.632018
v -0.496574 2.253429 -0.743175
v -0.342046 2.253429 -0.825772
v -0.174373 2.253429 -0.876635
v 0.000000 4.399297 0.000000
v 0.308833 2.260693 -2.314619
v 0.308833 2.775429 -2.017613
v -0.308834 2.260693 -2.314619
v -0.308834 2.775429 -2.017613
v -0.308833 2.260693 2.314619
v -0.308833 2.775429 2.017613
v 0.308833 2.260693 2.314619
v 0.308833 2.775429 2.017613
vn 0.2903 -0.0000 -0.9569
vn 0.4714 -0.0000 -0.8819
vn 0.6344 -0.0000 -0.7730
vn 0.7730 -0.0000 -0.6344
vn 0.8819 -0.0000 -0.4714
vn 0.9569 -0.0000 -0.2903
vn 0.9952 -0.0000 -0.0980
vn 0.9952 -0.0000 0.0980
vn 0.9569 -0.0000 0.2903
vn 0.8819 -0.0000 0.4714
vn 0.7730 -0.0000 0.6344
vn 0.6344 -0.0000 0.7730
vn 0.4714 -0.0000 0.8819
vn 0.2903 -0.0000 0.9569
vn -0.2903 -0.0000 0.9569
vn -0.4714 -0.0000 0.8819
vn -0.6344 -0.0000 0.7730
vn -0.7730 -0.0000 0.6344
vn -0.8819 -0.0000 0.4714
vn -0.9569 -0.0000 0.2903
vn -0.9952 -0.0000 0.0980
vn -0.9952 -0.0000 -0.0980
vn -0.9569 -0.0000 -0.2903
vn -0.8819 -0.0000 -0.4714
vn -0.7730 -0.0000 -0.6344
vn -0.6344 -0.0000 -0.7730
vn -0.4714 -0.0000 -0.8819
vn -0.2903 -0.0000 -0.9569
vn -0.0000 -1.0000 -0.0000
vn 0.0905 0.3829 -0.9193
vn 0.2682 0.3829 -0.8840
vn 0.4355 0.3829 -0.8147
vn 0.5860 0.3829 -0.7141
vn 0.7141 0.3829 -0.5860
vn 0.8147 0.3829 -0.4355
vn 0.8840 0.3829 -0.2682
vn 0.9193 0.3829 -0.0905
vn 0.9193 0.3829 0.0905
vn 0.8840 0.3829 0.2682
vn 0.8147 0.3829 0.4355
vn 0.7141 0.3829 0.5860
vn 0.5860 0.3829 0.7141
vn 0.4355 0.3829 0.8147
vn 0.2682 0.3829 0.8840
vn 0.0905 0.3829 0.9193
vn -0.0905 0.3829 0.9193
vn -0.2682 0.3829 0.8840
vn -0.4355 0.3829 0.8147
vn -0.5860 0.3829 0.7141
vn -0.7141 0.3829 0.5860
vn -0.8147 0.3829 0.4355
vn -0.8840 0.3829 0.2682
vn -0.9193 0.3829 0.0905
vn -0.9193 0.3829 -0.0905
vn -0.8840 0.3829 -0.2682
vn -0.8147 0.3829 -0.4355
vn -0.7141 0.3829 -0.5860
vn -0.5860 0.3829 -0.7141
vn -0.4355 0.3829 -0.8147
vn -0.2682 0.3829 -0.8840
vn -0.0905 0.3829 -0.9193
vn -0.0000 0.4998 -0.8662
vn 0.9961 -0.0443 0.0769
vn -0.9964 -0.0000 0.0850
vn 0.0842 -0.5124 -0.8546
vn -0.0000 0.8073 0.5901
vn -0.0000 0.4998 0.8662
vn 0.9964 -0.0000 -0.0850
vn -0.9961 -0.0443 -0.0769
vn -0.0842 -0.5124 0.8546
vn -0.0576 0.8090 -0.5850
vn 0.9082 0.4089 0.0894
vn 0.9082 0.4089 -0.0895
vn 0.8733 0.4089 -0.2649
vn 0.8048 0.4089 -0.4302
vn 0.7054 0.4089 -0.5789
vn 0.5789 0.4089 -0.7054
vn 0.4302 0.4089 -0.8048
vn 0.2649 0.4089 -0.8733
vn 0.8733 0.4089 0.2649
vn 0.8048 0.4089 0.4302
vn 0.7054 0.4089 0.5789
vn 0.5789 0.4089 0.7054
vn 0.4302 0.4089 0.8048
vn 0.2649 0.4089 0.8733
vn 0.0895 0.4089 0.9082
vn -0.0895 0.4089 0.9082
vn -0.2649 0.4089 0.8733
vn -0.4302 0.4089 0.8048
vn -0.5789 0.4089 0.7054
vn -0.7054 0.4089 0.5789
vn -0.8048 0.4089 0.4302
vn -0.8733 0.4089 0.2649
vn -0.9082 0.4089 0.0895
vn -0.9082 0.4089 -0.0895
vn -0.8733 0.4089 -0.2649
vn -0.8048 0.4089 -0.4302
vn -0.7054 0.4089 -0.5789
vn -0.5789 0.4089 -0.7054
vn -0.4302 0.4089 -0.8048
vn -0.2649 0.4089 -0.8733
vn -0.0895 0.4089 -0.9082
vn 0.0895 0.4089 -0.9082
vn 0.9964 -0.0000 0.0850
vn -0.9961 -0.0443 0.0769
vn -0.0842 -0.5124 -0.8546
vn -0.0000 -0.5056 -0.8628
vn 0.9961 -0.0443 -0.0769
vn -0.9964 -0.0000 -0.0850
vn 0.0842 -0.5124 0.8546
vn -0.0000 -0.5056 0.8628
vn 0.0576 0.8090 -0.5850
vn -0.0000 0.8020 -0.5973
vn 0.9082 0.4089 0.0895
vn 0.9082 0.4089 -0.0894
vn -0.0000 0.3460 -0.9383
vt 0.968750 1.000000
vt 0.937500 0.500000
vt 0.968750 0.500000
vt 0.937500 1.000000
vt 0.906250 0.500000
vt 0.906250 1.000000
vt 0.875000 0.500000
vt 0.875000 1.000000
vt 0.843750 0.500000
vt 0.843750 1.000000
vt 0.812500 0.500000
vt 0.812500 1.000000
vt 0.781250 0.500000
vt 0.781250 1.000000
vt 0.750000 0.500000
vt 0.750000 1.000000
vt 0.718750 0.500000
vt 0.718750 1.000000
vt 0.687500 0.500000
vt 0.687500 1.000000
vt 0.656250 0.500000
vt 0.656250 1.000000
vt 0.625000 0.500000
vt 0.625000 1.000000
vt 0.593750 0.500000
vt 0.593750 1.000000
vt 0.562500 0.500000
vt 0.562500 1.000000
vt 0.531250 0.500000
vt 0.468750 1.000000
vt 0.437500 0.500000
vt 0.468750 0.500000
vt 0.437500 1.000000
vt 0.406250 0.500000
vt 0.406250 1.000000
vt 0.375000 0.500000
vt 0.375000 1.000000
vt 0.343750 0.500000
vt 0.343750 1.000000
vt 0.312500 0.500000
vt 0.312500 1.000000
vt 0.281250 0.500000
vt 0.281250 1.000000
vt 0.250000 0.500000
vt 0.250000 1.000000
vt 0.218750 0.500000
vt 0.218750 1.000000
vt 0.187500 0.500000
vt 0.187500 1.000000
vt 0.156250 0.500000
vt 0.156250 1.000000
vt 0.125000 0.500000
vt 0.125000 1.000000
vt 0.093750 0.500000
vt 0.093750 1.000000
vt 0.062500 0.500000
vt 0.062500 1.000000
vt 0.031250 0.500000
vt 0.796822 0.014612
vt 0.514612 0.203178
vt 0.703178 0.485388
vt 0.250000 0.490000
vt 0.250000 0.250000
vt 0.296822 0.485388
vt 0.341844 0.471731
vt 0.383337 0.449553
vt 0.419706 0.419706
vt 0.449553 0.383337
vt 0.471731 0.341844
vt 0.485388 0.296822
vt 0.490000 0.250000
vt 0.485388 0.203178
vt 0.471731 0.158156
vt 0.449553 0.116663
vt 0.419706 0.080294
vt 0.383337 0.050447
vt 0.341844 0.028269
vt 0.296822 0.014612
vt 0.250000 0.010000
vt 0.203178 0.014612
vt 0.158156 0.028269
vt 0.116663 0.050447
vt 0.080294 0.080294
vt 0.050447 0.116663
vt 0.028269 0.158156
vt 0.014612 0.203178
vt 0.010000 0.250000
vt 0.014612 0.296822
vt 0.028269 0.341844
vt 0.050447 0.383337
vt 0.080294 0.419706
vt 0.116663 0.449553
vt 0.158156 0.471731
vt 0.203178 0.485388
vt 0.625000 0.750000
vt 0.375000 0.750000
vt 0.031250 1.000000
vt 0.750000 0.490000
vt 0.531250 1.000000
vt 0.750000 0.010000
vt 0.500000 1.000000
vt 0.796822 0.485388
vt 0.841844 0.471731
vt 0.883337 0.449553
vt 0.919706 0.419706
vt 0.949553 0.383337
vt 0.971731 0.341844
vt 0.985388 0.296822
vt 0.990000 0.250000
vt 0.985388 0.203178
vt 0.971731 0.158156
vt 0.949553 0.116663
vt 0.919706 0.080294
vt 0.883337 0.050447
vt 0.841844 0.028269
vt 0.703178 0.014612
vt 0.658156 0.028269
vt 0.616663 0.050447
vt 0.580294 0.080294
vt 0.550447 0.116663
vt 0.528269 0.158156
vt 0.510000 0.250000
vt 0.514612 0.296822
vt 0.528269 0.341844
vt 0.550447 0.383337
vt 0.580294 0.419706
vt 0.616663 0.449553
vt 0.658156 0.471731
s 0
f 3/1/1 4/2/1 2/3/1
f 5/4/2 6/5/2 4/2/2
f 7/6/3 8/7/3 6/5/3
f 9/8/4 10/9/4 8/7/4
f 11/10/5 12/11/5 10/9/5
f 13/12/6 14/13/6 12/11/6
f 15/14/7 16/15/7 14/13/7
f 17/16/8 18/17/8 16/15/8
f 19/18/9 20/19/9 18/17/9
f 21/20/10 22/21/10 20/19/10
f 23/22/11 24/23/11 22/21/11
f 25/24/12 26/25/12 24/23/12
f 27/26/13 28/27/13 26/25/13
f 29/28/14 30/29/14 28/27/14
f 35/30/15 36/31/15 34/32/15
f 37/33/16 38/34/16 36/31/16
f 39/35/17 40/36/17 38/34/17
f 41/37/18 42/38/18 40/36/18
f 43/39/19 44/40/19 42/38/19
f 45/41/20 46/42/20 44/40/20
f 47/43/21 48/44/21 46/42/21
f 49/45/22 50/46/22 48/44/22
f 51/47/23 52/48/23 50/46/23
f 53/49/24 54/50/24 52/48/24
f 55/51/25 56/52/25 54/50/25
f 57/53/26 58/54/26 56/52/26
f 59/55/27 60/56/27 58/54/27
f 61/57/28 62/58/28 60/56/28
f 30/59/29 46/60/29 62/61/29
f 64/62/30 96/63/30 65/64/30
f 65/64/31 96/63/31 66/65/31
f 66/65/32 96/63/32 67/66/32
f 67/66/33 96/63/33 68/67/33
f 68/67/34 96/63/34 69/68/34
f 69/68/35 96/63/35 70/69/35
f 70/69/36 96/63/36 71/70/36
f 71/70/37 96/63/37 72/71/37
f 72/71/38 96/63/38 73/72/38
f 73/72/39 96/63/39 74/73/39
f 74/73/40 96/63/40 75/74/40
f 75/74/41 96/63/41 76/75/41
f 76/75/42 96/63/42 77/76/42
f 77/76/43 96/63/43 78/77/43
f 78/77/44 96/63/44 79/78/44
f 79/78/45 96/63/45 80/79/45
f 80/79/46 96/63/46 81/80/46
f 81/80/47 96/63/47 82/81/47
f 82/81/48 96/63/48 83/82/48
f 83/82/49 96/63/49 84/83/49
f 84/83/50 96/63/50 85/84/50
f 85/84/51 96/63/51 86/85/51
f 86/85/52 96/63/52 87/86/52
f 87/86/53 96/63/53 88/87/53
f 88/87/54 96/63/54 89/88/54
f 89/88/55 96/63/55 90/89/55
f 90/89/56 96/63/56 91/90/56
f 91/90/57 96/63/57 92/91/57
f 92/91/58 96/63/58 93/92/58
f 93/92/59 96/63/59 94/93/59
f 94/93/60 96/63/60 95/94/60
f 95/94/61 96/63/61 64/62/61
f 100/95/62 97/37/62 99/96/62
f 3/1/63 97/37/63 98/24/63
f 63/97/64 99/96/64 62/58/64
f 97/37/65 2/3/65 1/98/65
f 63/97/66 98/24/66 100/95/66
f 104/95/67 101/37/67 103/96/67
f 31/99/68 103/96/68 30/29/68
f 35/30/69 101/37/69 102/24/69
f 101/37/70 34/32/70 32/100/70
f 104/95/71 31/99/71 33/101/71
f 19/18/72 72/71/72 73/72/72
f 15/14/73 72/71/73 17/16/73
f 15/14/74 70/69/74 71/70/74
f 13/12/75 69/68/75 70/69/75
f 11/10/76 68/67/76 69/68/76
f 7/6/77 68/67/77 9/8/77
f 5/4/78 67/66/78 7/6/78
f 3/1/79 66/65/79 5/4/79
f 19/18/80 74/73/80 21/20/80
f 21/20/81 75/74/81 23/22/81
f 23/22/82 76/75/82 25/24/82
f 25/24/83 77/76/83 27/26/83
f 27/26/84 78/77/84 29/28/84
f 29/28/85 79/78/85 31/99/85
f 31/99/86 80/79/86 33/101/86
f 33/101/87 81/80/87 35/30/87
f 35/30/88 82/81/88 37/33/88
f 37/33/89 83/82/89 39/35/89
f 39/35/90 84/83/90 41/37/90
f 41/37/91 85/84/91 43/39/91
f 43/39/92 86/85/92 45/41/92
f 45/41/93 87/86/93 47/43/93
f 47/43/94 88/87/94 49/45/94
f 51/47/95 88/87/95 89/88/95
f 51/47/96 90/89/96 53/49/96
f 55/51/97 90/89/97 91/90/97
f 57/53/98 91/90/98 92/91/98
f 59/55/99 92/91/99 93/92/99
f 61/57/100 93/92/100 94/93/100
f 63/97/101 94/93/101 95/94/101
f 64/62/102 63/97/102 95/94/102
f 65/64/103 3/1/103 64/62/103
f 3/1/1 5/4/1 4/2/1
f 5/4/2 7/6/2 6/5/2
f 7/6/3 9/8/3 8/7/3
f 9/8/4 11/10/4 10/9/4
f 11/10/5 13/12/5 12/11/5
f 13/12/6 15/14/6 14/13/6
f 15/14/7 17/16/7 16/15/7
f 17/16/8 19/18/8 18/17/8
f 19/18/9 21/20/9 20/19/9
f 21/20/10 23/22/10 22/21/10
f 23/22/11 25/24/11 24/23/11
f 25/24/12 27/26/12 26/25/12
f 27/26/13 29/28/13 28/27/13
f 29/28/14 31/99/14 30/29/14
f 35/30/15 37/33/15 36/31/15
f 37/33/16 39/35/16 38/34/16
f 39/35/17 41/37/17 40/36/17
f 41/37/18 43/39/18 42/38/18
f 43/39/19 45/41/19 44/40/19
f 45/41/20 47/43/20 46/42/20
f 47/43/21 49/45/21 48/44/21
f 49/45/22 51/47/22 50/46/22
f 51/47/23 53/49/23 52/48/23
f 53/49/24 55/51/24 54/50/24
f 55/51/25 57/53/25 56/52/25
f 57/53/26 59/55/26 58/54/26
f 59/55/27 61/57/27 60/56/27
f 61/57/28 63/97/28 62/58/28
f 62/61/29 1/98/29 2/102/29
f 2/102/29 4/103/29 6/104/29
f 6/104/29 8/105/29 10/106/29
f 10/106/29 12/107/29 14/108/29
f 14/108/29 16/109/29 18/110/29
f 18/110/29 20/111/29 22/112/29
f 22/112/29 24/113/29 26/114/29
f 26/114/29 28/115/29 30/59/29
f 30/59/29 32/100/29 34/116/29
f 34/116/29 36/117/29 38/118/29
f 38/118/29 40/119/29 42/120/29
f 42/120/29 44/121/29 46/60/29
f 46/60/29 48/122/29 50/123/29
f 50/123/29 52/124/29 54/125/29
f 54/125/29 56/126/29 58/127/29
f 58/127/29 60/128/29 62/61/29
f 62/61/29 2/102/29 14/108/29
f 2/102/29 6/104/29 14/108/29
f 6/104/29 10/106/29 14/108/29
f 14/108/29 18/110/29 30/59/29
f 18/110/29 22/112/29 30/59/29
f 22/112/29 26/114/29 30/59/29
f 30/59/29 34/116/29 46/60/29
f 34/116/29 38/118/29 46/60/29
f 38/118/29 42/120/29 46/60/29
f 46/60/29 50/123/29 62/61/29
f 50/123/29 54/125/29 62/61/29
f 54/125/29 58/127/29 62/61/29
f 62/61/29 14/108/29 30/59/29
f 100/95/62 98/24/62 97/37/62
f 3/1/104 2/3/104 97/37/104
f 63/97/105 100/95/105 99/96/105
f 1/98/106 62/61/106 99/96/106
f 99/96/107 97/37/107 1/98/107
f 63/97/66 3/1/66 98/24/66
f 104/95/67 102/24/67 101/37/67
f 31/99/108 104/95/108 103/96/108
f 35/30/109 34/32/109 101/37/109
f 32/100/110 30/29/110 103/96/110
f 103/96/111 101/37/111 32/100/111
f 33/101/112 35/30/112 102/24/112
f 102/24/113 104/95/113 33/101/113
f 19/18/114 17/16/114 72/71/114
f 15/14/115 71/70/115 72/71/115
f 15/14/74 13/12/74 70/69/74
f 13/12/75 11/10/75 69/68/75
f 11/10/76 9/8/76 68/67/76
f 7/6/77 67/66/77 68/67/77
f 5/4/78 66/65/78 67/66/78
f 3/1/79 65/64/79 66/65/79
f 19/18/80 73/72/80 74/73/80
f 21/20/81 74/73/81 75/74/81
f 23/22/82 75/74/82 76/75/82
f 25/24/83 76/75/83 77/76/83
f 27/26/84 77/76/84 78/77/84
f 29/28/85 78/77/85 79/78/85
f 31/99/86 79/78/86 80/79/86
f 33/101/87 80/79/87 81/80/87
f 35/30/88 81/80/88 82/81/88
f 37/33/89 82/81/89 83/82/89
f 39/35/90 83/82/90 84/83/90
f 41/37/91 84/83/91 85/84/91
f 43/39/92 85/84/92 86/85/92
f 45/41/93 86/85/93 87/86/93
f 47/43/94 87/86/94 88/87/94
f 51/47/95 49/45/95 88/87/95
f 51/47/96 89/88/96 90/89/96
f 55/51/97 53/49/97 90/89/97
f 57/53/98 55/51/98 91/90/98
f 59/55/99 57/53/99 92/91/99
f 61/57/100 59/55/100 93/92/100
f 63/97/101 61/57/101 94/93/101
f 64/62/116 3/1/116 63/97/116
