# Blender 4.5.1 LTS
# www.blender.org
mtllib tree.mtl
o Cube.001
v -2.463687 0.542342 2.463687
v -0.359415 4.773081 0.359415
v -2.463687 0.542342 -2.463687
v -0.359415 4.773081 -0.359415
v 2.463687 0.542342 2.463687
v 0.359415 4.773081 0.359415
v 2.463687 0.542342 -2.463687
v 0.359415 4.773081 -0.359415
v 1.000000 0.180033 -1.000000
v 1.000000 -3.052696 -1.000000
v 1.000000 0.180033 1.000000
v 1.000000 -3.052696 1.000000
v -1.000000 0.180033 -1.000000
v -1.000000 -3.052696 -1.000000
v -1.000000 0.180033 1.000000
v -1.000000 -3.052696 1.000000
vn -0.8954 0.4453 -0.0000
vn -0.0000 0.4453 -0.8954
vn 0.8954 0.4453 -0.0000
vn -0.0000 0.4453 0.8954
vn -0.0000 1.0000 -0.0000
vn -0.0000 -0.0000 1.0000
vn -1.0000 -0.0000 -0.0000
vn -0.0000 -1.0000 -0.0000
vn 1.0000 -0.0000 -0.0000
vn -0.0000 -0.0000 -1.0000
vn 0.2403 -0.9707 -0.0000
vn -0.0000 -0.9707 0.2403
vn -0.2403 -0.9707 -0.0000
vn -0.0000 -0.9707 -0.2403
vt 0.375000 0.000000
vt 0.625000 0.000000
vt 0.625000 0.250000
vt 0.375000 0.250000
vt 0.625000 0.500000
vt 0.375000 0.500000
vt 0.625000 0.750000
vt 0.375000 0.750000
vt 0.625000 1.000000
vt 0.375000 1.000000
vt 0.875000 0.500000
vt 0.875000 0.750000
vt 0.125000 0.500000
vt 0.125000 0.750000
s 0
usemtl 
f 1/1/1 2/2/1 4/3/1 3/4/1
f 3/4/2 4/3/2 8/5/2 7/6/2
f 7/6/3 8/5/3 6/7/3 5/8/3
f 5/8/4 6/7/4 2/9/4 1/10/4
f 8/5/5 4/11/5 2/12/5 6/7/5
f 5/8/11 11/7/11 9/5/11 7/6/11
f 1/10/12 15/9/12 11/7/12 5/8/12
f 3/4/13 13/3/13 15/2/13 1/10/13
f 7/6/14 9/5/14 13/3/14 3/4/14
usemtl Material
f 12/8/6 11/7/6 15/9/6 16/10/6
f 16/1/7 15/2/7 13/3/7 14/4/7
f 14/13/8 10/6/8 12/8/8 16/14/8
f 10/6/9 9/5/9 11/7/9 12/8/9
f 14/4/10 13/3/10 9/5/10 10/6/10
